<?xml version="1.0" encoding="utf-8"?>
<!-- Generator: Adobe Illustrator 26.2.1, SVG Export Plug-In . SVG Version: 6.00 Build 0)  -->
<svg version="1.1" id="Layer_1" xmlns="http://www.w3.org/2000/svg" xmlns:xlink="http://www.w3.org/1999/xlink" x="0px" y="0px"
	 viewBox="0 0 19 20" style="enable-background:new 0 0 19 20;" xml:space="preserve">
<style type="text/css">
	.st0{clip-path:url(#SVGID_00000026165370829007536210000004606156705156172691_);fill:#FFFFFF;}
</style>
<g>
	<defs>
		<rect id="SVGID_1_" y="0.5" width="19" height="19"/>
	</defs>
	<clipPath id="SVGID_00000133490624285090868000000006013614716743175073_">
		<use xlink:href="#SVGID_1_"  style="overflow:visible;"/>
	</clipPath>
	<path style="clip-path:url(#SVGID_00000133490624285090868000000006013614716743175073_);fill:#FFFFFF;" d="M17.7,5.3
		c-0.8-1.4-2-2.6-3.5-3.5c-1.4-0.8-3.1-1.3-4.8-1.3c-2.5,0-4.9,1-6.7,2.8C1,5.1,0,7.5,0,10c0,2.5,1,4.9,2.8,6.7
		c1.8,1.8,4.2,2.8,6.7,2.8c2.5,0,4.9-1,6.7-2.8C18,14.9,19,12.5,19,10C19,8.3,18.6,6.7,17.7,5.3z M12.6,10c0,0.3-0.1,0.6-0.3,0.9
		l-3.8,3.8C8.1,15,7.7,15.1,7.3,15c-0.4-0.1-0.7-0.4-0.8-0.8c-0.1-0.4,0-0.8,0.3-1.1l3-3l-3-3C6.5,6.7,6.4,6.3,6.5,5.9
		C6.6,5.5,6.9,5.1,7.3,5c0.4-0.1,0.8,0,1.1,0.3l3.8,3.8v0C12.4,9.3,12.6,9.6,12.6,10L12.6,10z"/>
</g>
</svg>
