<svg width="22" height="19" viewBox="0 0 22 19" fill="none" xmlns="http://www.w3.org/2000/svg">
<g clip-path="url(#clip0_1180_1056)">
<path d="M0.594727 9.48696C0.608124 9.16553 0.745445 8.79348 0.975708 8.55884L8.4781 0.908033C8.98635 0.469283 9.961 0.288479 10.5295 0.795533C11.0889 1.29455 11.0721 2.26285 10.5153 2.76428L5.24018 8.13616H20.188C20.9651 8.13616 21.5947 8.74044 21.5947 9.48616C21.5947 10.2319 20.9651 10.8362 20.188 10.8362H5.24018L10.5153 16.208C10.9951 16.6693 11.0838 17.6721 10.5295 18.1768C9.97523 18.6822 8.96542 18.5207 8.4781 18.0643L0.975708 10.4143C0.718651 10.1523 0.593889 9.84535 0.594727 9.48616V9.48696Z" fill="#5A6376"/>
</g>
<defs>
<clipPath id="clip0_1180_1056">
<rect width="21" height="18" fill="white" transform="matrix(-1 0 0 1 21.5947 0.489258)"/>
</clipPath>
</defs>
</svg>
