<svg width="22" height="19" viewBox="0 0 22 19" fill="none" xmlns="http://www.w3.org/2000/svg">
<path d="M21.793 9.84682C21.7796 9.5254 21.6423 9.15334 21.412 8.9187L13.9096 1.2679C13.4013 0.829146 12.4267 0.648342 11.8582 1.1554C11.2988 1.65441 11.3156 2.62272 11.8724 3.12415L17.1475 8.49602H2.19967C1.42263 8.49602 0.792969 9.10031 0.792969 9.84602C0.792969 10.5917 1.42263 11.196 2.19967 11.196H17.1475L11.8724 16.5679C11.3926 17.0291 11.3039 18.032 11.8582 18.5366C12.4125 19.0421 13.4223 18.8806 13.9096 18.4241L21.412 10.7741C21.669 10.5122 21.7938 10.2052 21.793 9.84602V9.84682Z" fill="#5A6376"/>
</svg>
